<svg width="80" height="80" viewBox="0 0 46 41" fill="none" xmlns="http://www.w3.org/2000/svg">
<path d="M45.4 20.0083C45.4 17.0083 40.06 15.0083 33.07 14.0083C33.41 13.1683 33.71 12.3583 33.99 11.5683C33.4087 11.5183 32.8421 11.3588 32.32 11.0983C32.02 11.9683 31.68 12.8583 31.32 13.7783C29.76 13.6083 28.15 13.4883 26.52 13.4083C25.65 12.0583 24.73 10.7283 23.79 9.40833C27.6 4.46833 30.99 1.68833 32.79 1.68833C32.9508 1.6796 33.1106 1.71782 33.25 1.79833C33.5501 2.02685 33.7478 2.36472 33.8 2.73833C34.3921 2.65802 34.9942 2.69884 35.57 2.85832C35.5413 2.34888 35.3955 1.85292 35.1441 1.40894C34.8926 0.964958 34.5422 0.584918 34.12 0.298326C33.6836 0.0695437 33.1912 -0.0310007 32.7 0.00832526C30.01 0.00832526 26.25 3.46833 22.7 8.00833C19.13 3.42833 15.37 0.00832526 12.7 0.00832526C12.234 -0.00153782 11.7741 0.116019 11.37 0.348322C9.63003 1.34832 9.37002 4.34833 10.61 8.91833C11.0847 10.6525 11.6658 12.3557 12.35 14.0183C11.35 14.1483 10.41 14.3083 9.5 14.4883C9.80182 14.9976 9.99902 15.5619 10.08 16.1483C11.02 15.9683 12.01 15.8083 13.08 15.6683C13.7 17.0883 14.39 18.535 15.15 20.0083C14.39 21.4783 13.69 22.9383 13.08 24.3583C5.92002 23.3583 1.79001 21.4883 1.79001 20.0083C1.81314 19.7344 1.92965 19.4767 2.12003 19.2783C1.75998 18.7729 1.51117 18.1969 1.39001 17.5883C0.990084 17.86 0.657124 18.219 0.416321 18.6383C0.175517 19.0575 0.033156 19.526 0 20.0083C0 23.0083 5.34002 25.0083 12.33 26.0083C11.6458 27.671 11.0647 29.3742 10.59 31.1083C9.34003 35.7083 9.59001 38.6683 11.35 39.6783C11.7608 39.9112 12.2281 40.0254 12.7 40.0083C15.39 40.0083 19.15 36.5483 22.7 32.0083C23.11 32.5383 23.53 33.0083 23.94 33.5483C24.2475 33.0495 24.6522 32.6176 25.13 32.2783C24.68 31.7483 24.23 31.1883 23.77 30.5983C24.71 29.3183 25.63 27.9883 26.5 26.5983C28.13 26.5183 29.74 26.3983 31.3 26.2283C32.0234 27.9617 32.6379 29.7385 33.14 31.5483C34.29 35.7983 33.88 37.7683 33.14 38.1683C33.0006 38.2488 32.8408 38.287 32.68 38.2783C32.2812 38.2592 31.8902 38.1606 31.53 37.9883C31.2346 38.5095 30.8366 38.9654 30.36 39.3283C31.0733 39.7415 31.8764 39.9749 32.7 40.0083C33.166 40.0182 33.6259 39.9006 34.03 39.6683C36.63 38.1683 35.7 32.5383 33.03 25.9983C40.06 25.0083 45.4 23.0083 45.4 20.0083ZM30.58 15.4583C30.19 16.3383 29.76 17.2383 29.31 18.1483C29.04 17.6483 28.76 17.1483 28.48 16.6683L27.62 15.2083C28.63 15.2783 29.62 15.3583 30.58 15.4583ZM24.39 13.3483H21.01C21.57 12.4883 22.14 11.6683 22.7 10.8983C23.26 11.6683 23.83 12.4883 24.39 13.3483ZM12.26 8.46832C11.11 4.21832 11.52 2.24832 12.26 1.84832C12.3994 1.76782 12.5592 1.72961 12.72 1.73833C14.47 1.73833 17.86 4.51832 21.72 9.45832C20.78 10.7383 19.86 12.0683 18.99 13.4583C17.36 13.5383 15.74 13.6583 14.19 13.8283C13.4506 12.0832 12.8227 10.2929 12.31 8.46832H12.26ZM14.82 15.4683C15.82 15.3683 16.77 15.2883 17.82 15.2183L16.96 16.6783L16.13 18.1583C15.64 17.2383 15.21 16.3383 14.82 15.4583V15.4683ZM16.09 21.8783L16.92 23.3583L17.78 24.8183C16.7533 24.7583 15.7533 24.6783 14.78 24.5783C15.21 23.6783 15.64 22.7783 16.09 21.8683V21.8783ZM12.7 38.2783C12.5393 38.287 12.3794 38.2488 12.24 38.1683C11.54 37.7683 11.13 35.7983 12.24 31.5483C12.7422 29.7385 13.3567 27.9617 14.08 26.2283C15.63 26.3983 17.25 26.5183 18.88 26.5983C19.75 27.9483 20.67 29.2783 21.61 30.5983C17.82 35.4983 14.43 38.2783 12.7 38.2783ZM22.7 29.1183C22.14 28.3483 21.57 27.5283 21.01 26.6683H24.39C23.83 27.5283 23.26 28.3483 22.7 29.1183ZM25.53 24.9083H19.87C19.39 24.1283 18.87 23.3183 18.42 22.4783C17.97 21.6383 17.49 20.8283 17.05 20.0083C17.49 19.1883 17.94 18.3583 18.42 17.5383C18.9 16.7183 19.42 15.8883 19.87 15.1183C20.8 15.1183 21.75 15.1183 22.7 15.1183C23.65 15.1183 24.6 15.1183 25.53 15.1183C26.01 15.8883 26.53 16.6983 26.98 17.5383C27.43 18.3783 27.91 19.1883 28.35 20.0083C27.91 20.8283 27.46 21.6583 26.98 22.4783C26.5 23.2983 26.01 24.1283 25.53 24.9083V24.9083ZM27.62 24.8083L28.48 23.3483L29.31 21.8683C29.76 22.7783 30.19 23.6783 30.58 24.5683C29.64 24.6683 28.7 24.7483 27.58 24.8083H27.62ZM32.38 24.3583C31.76 22.9183 31.06 21.4683 30.3 20.0083C31.0667 18.5417 31.76 17.095 32.38 15.6683C34.2472 15.9091 36.0975 16.2665 37.92 16.7383C42.16 17.8683 43.67 19.2083 43.67 20.0083C43.67 21.4883 39.54 23.3983 32.38 24.3583V24.3583ZM26.33 20.0083C26.33 20.7263 26.1171 21.4281 25.7183 22.025C25.3194 22.622 24.7524 23.0873 24.0891 23.362C23.4258 23.6368 22.696 23.7086 21.9918 23.5686C21.2877 23.4285 20.6409 23.0828 20.1332 22.5751C19.6255 22.0675 19.2798 21.4207 19.1398 20.7165C18.9997 20.0124 19.0716 19.2825 19.3463 18.6192C19.6211 17.9559 20.0863 17.389 20.6833 16.9901C21.2802 16.5912 21.9821 16.3783 22.7 16.3783C23.6619 16.381 24.5837 16.7643 25.2639 17.4444C25.9441 18.1246 26.3274 19.0464 26.33 20.0083V20.0083ZM34.33 4.50833C33.8039 4.50833 33.2896 4.66433 32.8522 4.95661C32.4148 5.2489 32.0738 5.66433 31.8725 6.15038C31.6712 6.63644 31.6185 7.17128 31.7211 7.68726C31.8238 8.20325 32.0771 8.67722 32.4491 9.04923C32.8211 9.42123 33.2951 9.67458 33.8111 9.77722C34.3271 9.87985 34.8619 9.82718 35.348 9.62585C35.834 9.42452 36.2494 9.08358 36.5417 8.64614C36.834 8.20871 36.99 7.69443 36.99 7.16833C36.99 6.46285 36.7098 5.78627 36.2109 5.28742C35.7121 4.78858 35.0355 4.50833 34.33 4.50833V4.50833ZM30.33 35.8383C30.33 36.3644 30.174 36.8787 29.8817 37.3161C29.5894 37.7536 29.174 38.0945 28.688 38.2958C28.2019 38.4972 27.6671 38.5498 27.1511 38.4472C26.6351 38.3446 26.1611 38.0912 25.7891 37.7192C25.4171 37.3472 25.1638 36.8733 25.0611 36.3573C24.9585 35.8413 25.0112 35.3064 25.2125 34.8204C25.4138 34.3343 25.7548 33.9189 26.1922 33.6266C26.6296 33.3343 27.1439 33.1783 27.67 33.1783V33.1783C28.0193 33.1744 28.366 33.2392 28.6902 33.3693C29.0145 33.4993 29.31 33.6919 29.5598 33.9362C29.8095 34.1804 30.0088 34.4714 30.1461 34.7926C30.2834 35.1139 30.3561 35.459 30.36 35.8083L30.33 35.8383ZM8.33002 16.7283C8.33002 17.2544 8.174 17.7687 7.88171 18.2061C7.58943 18.6436 7.17401 18.9845 6.68796 19.1858C6.20191 19.3872 5.66705 19.4399 5.15106 19.3372C4.63507 19.2346 4.1611 18.9812 3.78909 18.6092C3.41709 18.2372 3.16376 17.7633 3.06113 17.2473C2.95849 16.7313 3.01116 16.1964 3.21249 15.7104C3.41382 15.2243 3.75476 14.8089 4.1922 14.5166C4.62963 14.2243 5.14392 14.0683 5.67001 14.0683C6.37549 14.0683 7.05206 14.3486 7.5509 14.8474C8.04975 15.3463 8.33002 16.0229 8.33002 16.7283Z" fill="#61ACDE"/>
</svg>
